<svg version="1.1" xmlns="http://www.w3.org/2000/svg" viewBox="0 0 657.2856750488281 165.71424865722656" width="1314.5713500976562" height="331.4284973144531">
  <!-- svg-source:excalidraw -->
  
  <defs>
    <style class="style-fonts">
      @font-face {
        font-family: "Virgil";
        src: url("https://excalidraw.com/Virgil.woff2");
      }
      @font-face {
        font-family: "Cascadia";
        src: url("https://excalidraw.com/Cascadia.woff2");
      }
    </style>
  </defs>
  <rect x="0" y="0" width="657.2856750488281" height="165.71424865722656" fill="#ffffff"></rect><g stroke-linecap="round" transform="translate(10 12.571395874023438) rotate(0 108.28567504882812 53.71430969238281)"><path d="M26.86 0 M26.86 0 C60.75 1.92, 96.93 -0.61, 189.71 0 M26.86 0 C70.48 0.9, 115.11 0.6, 189.71 0 M189.71 0 C208.31 0.46, 217.17 7.59, 216.57 26.86 M189.71 0 C209.13 0.08, 218.51 7.82, 216.57 26.86 M216.57 26.86 C214.99 43.52, 217.8 60.39, 216.57 80.57 M216.57 26.86 C217.59 48.79, 216.04 68.85, 216.57 80.57 M216.57 80.57 C217.99 98.01, 208.36 107.18, 189.71 107.43 M216.57 80.57 C214.63 97.04, 208.71 108.11, 189.71 107.43 M189.71 107.43 C139.64 107.18, 88.24 107, 26.86 107.43 M189.71 107.43 C142.99 107.72, 98.69 108.9, 26.86 107.43 M26.86 107.43 C10.84 109.37, 1.04 98.34, 0 80.57 M26.86 107.43 C7.85 106.09, 2.06 98.1, 0 80.57 M0 80.57 C1.03 58.98, -1.15 40.34, 0 26.86 M0 80.57 C-0.6 60.63, -1.12 40.75, 0 26.86 M0 26.86 C-0.24 8.25, 10.68 -0.68, 26.86 0 M0 26.86 C0.76 10.2, 9.74 1.15, 26.86 0" stroke="#000000" stroke-width="1" fill="none"></path></g><g transform="translate(50.85693359375 55.71427917480469) rotate(0 66.63995361328125 12.5)"><text x="0" y="0" font-family="Virgil, Segoe UI Emoji" font-size="20px" fill="#000000" text-anchor="start" style="white-space: pre;" direction="ltr" dominant-baseline="text-before-edge">10.26.235.169</text></g><g transform="translate(71.5712890625 130.71424865722656) rotate(0 37.64995574951172 12.5)"><text x="0" y="0" font-family="Virgil, Segoe UI Emoji" font-size="20px" fill="#000000" text-anchor="start" style="white-space: pre;" direction="ltr" dominant-baseline="text-before-edge">provider</text></g><g stroke-linecap="round" transform="translate(430.7143249511719 10) rotate(0 108.28567504882812 53.71430969238281)"><path d="M26.86 0 M26.86 0 C74.64 -1.99, 122.34 -1.42, 189.71 0 M26.86 0 C83.04 -2.09, 138.69 -1.62, 189.71 0 M189.71 0 C208.6 -1.16, 215.11 9.01, 216.57 26.86 M189.71 0 C208.56 -0.15, 216.84 8.24, 216.57 26.86 M216.57 26.86 C218.51 40.04, 216.54 52.51, 216.57 80.57 M216.57 26.86 C216.68 42.92, 216.86 58.4, 216.57 80.57 M216.57 80.57 C218.05 98.5, 209.45 109, 189.71 107.43 M216.57 80.57 C214.69 96.19, 206.28 106.19, 189.71 107.43 M189.71 107.43 C124.96 109.38, 59.88 106.33, 26.86 107.43 M189.71 107.43 C139.45 105.59, 90.34 105.78, 26.86 107.43 M26.86 107.43 C7.81 105.8, -1.73 99.47, 0 80.57 M26.86 107.43 C10.8 105.65, -1.06 98.12, 0 80.57 M0 80.57 C-1.14 60.18, -1.65 43.86, 0 26.86 M0 80.57 C-0.53 64.43, 0.72 46.75, 0 26.86 M0 26.86 C-1.08 10.62, 9.53 0.49, 26.86 0 M0 26.86 C0.64 10.55, 7.4 -0.54, 26.86 0" stroke="#000000" stroke-width="1" fill="none"></path></g><g transform="translate(471.5712585449219 53.14288330078125) rotate(0 63.21995544433594 12.5)"><text x="0" y="0" font-family="Virgil, Segoe UI Emoji" font-size="20px" fill="#000000" text-anchor="start" style="white-space: pre;" direction="ltr" dominant-baseline="text-before-edge">10.26.235.67</text></g><g transform="translate(493.2856140136719 128.14285278320312) rotate(0 47.979942321777344 12.5)"><text x="0" y="0" font-family="Virgil, Segoe UI Emoji" font-size="20px" fill="#000000" text-anchor="start" style="white-space: pre;" direction="ltr" dominant-baseline="text-before-edge">subscriber</text></g><g stroke-linecap="round"><g transform="translate(238.5714111328125 51.42857360839844) rotate(0 90.75288230385166 -1.275755234691303)"><path d="M-0.55 0.9 C29.32 0.48, 149.41 -1.09, 179.76 -1.46 M1.37 0.33 C31.57 0.04, 152.06 -2.82, 182.05 -3.45" stroke="#000000" stroke-width="1" fill="none"></path></g><g transform="translate(238.5714111328125 51.42857360839844) rotate(0 90.75288230385166 -1.275755234691303)"><path d="M155.6 6.09 C164.06 5.48, 173.93 0.85, 181.35 -2.34 M153.69 7.7 C162.54 3.98, 173.03 0.93, 181.07 -2.67" stroke="#000000" stroke-width="1" fill="none"></path></g><g transform="translate(238.5714111328125 51.42857360839844) rotate(0 90.75288230385166 -1.275755234691303)"><path d="M155.14 -14.43 C163.94 -7.96, 173.97 -5.51, 181.35 -2.34 M153.23 -12.82 C162.03 -9.74, 172.68 -6.01, 181.07 -2.67" stroke="#000000" stroke-width="1" fill="none"></path></g></g><mask></mask><g stroke-linecap="round"><g transform="translate(413.4285888671875 80.57139587402344) rotate(0 -85.16470979698937 2.047759067383595)"><path d="M-0.53 -0.62 C-28.86 0.12, -142.53 2.93, -170.8 3.66 M1.39 1.67 C-27.02 2.61, -143.07 4.22, -171.72 4.71" stroke="#000000" stroke-width="2" fill="none"></path></g><g transform="translate(413.4285888671875 80.57139587402344) rotate(0 -85.16470979698937 2.047759067383595)"><path d="M-144.72 -5.89 C-151.72 -2.42, -157.99 0.67, -170.91 3.66 M-143.07 -5.33 C-149.16 -4.3, -156.62 -1.8, -170.99 5.59" stroke="#000000" stroke-width="2" fill="none"></path></g><g transform="translate(413.4285888671875 80.57139587402344) rotate(0 -85.16470979698937 2.047759067383595)"><path d="M-144.4 14.63 C-151.34 13.38, -157.68 11.77, -170.91 3.66 M-142.75 15.19 C-148.99 11.81, -156.52 9.91, -170.99 5.59" stroke="#000000" stroke-width="2" fill="none"></path></g></g><mask></mask><g transform="translate(296.71417236328125 116.99995422363281) rotate(0 31.20996856689453 12.5)"><text x="0" y="0" font-family="Virgil, Segoe UI Emoji" font-size="20px" fill="#000000" text-anchor="start" style="white-space: pre;" direction="ltr" dominant-baseline="text-before-edge">replica</text></g></svg>